HIERARCHY
ROOT joint_Root
{
  OFFSET 0 0 0
  CHANNELS 6 Xposition Yposition Zposition Zrotation Xrotation Yrotation
  JOINT Hips
  {
    OFFSET 0.847027 93.984 -452.225
    CHANNELS 6 Xposition Yposition Zposition Zrotation Xrotation Yrotation
    JOINT Spine
    {
      OFFSET 15.7357 0 0
      CHANNELS 6 Xposition Yposition Zposition Zrotation Xrotation Yrotation
      JOINT Chest
      {
        OFFSET 8.98455 -0.406207 0
        CHANNELS 6 Xposition Yposition Zposition Zrotation Xrotation Yrotation
        JOINT Neck
        {
          OFFSET 16.3773 0 0
          CHANNELS 6 Xposition Yposition Zposition Zrotation Xrotation Yrotation
          JOINT Head
          {
            OFFSET 6.45672 0 0
            CHANNELS 6 Xposition Yposition Zposition Zrotation Xrotation Yrotation
            End Site
            {
              OFFSET 0 0 0
            }
          }
        }
        JOINT Shoulder_L
        {
          OFFSET 12.9942 -0.242716 4.98039
          CHANNELS 6 Xposition Yposition Zposition Zrotation Xrotation Yrotation
          JOINT UpperArm_L
          {
            OFFSET 5.34809 0 0
            CHANNELS 6 Xposition Yposition Zposition Zrotation Xrotation Yrotation
            JOINT LowerArm_L
            {
              OFFSET 24.3286 1.87007e-05 0
              CHANNELS 6 Xposition Yposition Zposition Zrotation Xrotation Yrotation
              JOINT Hand_L
              {
                OFFSET 22.2916 0 0
                CHANNELS 6 Xposition Yposition Zposition Zrotation Xrotation Yrotation
                End Site
                {
                  OFFSET 0 0 0
                }
              }
            }
          }
        }
        JOINT Shoulder_R
        {
          OFFSET 12.9945 -0.242716 -4.98039
          CHANNELS 6 Xposition Yposition Zposition Zrotation Xrotation Yrotation
          JOINT UpperArm_R
          {
            OFFSET -5.34813 0 0
            CHANNELS 6 Xposition Yposition Zposition Zrotation Xrotation Yrotation
            JOINT LowerArm_R
            {
              OFFSET -24.3289 0.000322201 0
              CHANNELS 6 Xposition Yposition Zposition Zrotation Xrotation Yrotation
              JOINT Hand_R
              {
                OFFSET -22.2915 -0.000108084 0
                CHANNELS 6 Xposition Yposition Zposition Zrotation Xrotation Yrotation
                End Site
                {
                  OFFSET 0 0 0
                }
              }
            }
          }
        }
      }
    }
    JOINT UpperLeg_L
    {
      OFFSET -2.19248 -6.46944 0
      CHANNELS 6 Xposition Yposition Zposition Zrotation Xrotation Yrotation
      JOINT LowerLeg_L
      {
        OFFSET 39.0811 0 -1.23785e-05
        CHANNELS 6 Xposition Yposition Zposition Zrotation Xrotation Yrotation
        JOINT Foot_L
        {
          OFFSET 40.9854 0 -1.26872e-05
          CHANNELS 6 Xposition Yposition Zposition Zrotation Xrotation Yrotation
          JOINT Toes_L
          {
            OFFSET 11.7543 0 0
            CHANNELS 6 Xposition Yposition Zposition Zrotation Xrotation Yrotation
            End Site
            {
              OFFSET 0 0 0
            }
          }
        }
      }
    }
    JOINT UpperLeg_R
    {
      OFFSET -2.19251 6.46944 0
      CHANNELS 6 Xposition Yposition Zposition Zrotation Xrotation Yrotation
      JOINT LowerLeg_R
      {
        OFFSET -39.0811 -0.00228153 -0.0401928
        CHANNELS 6 Xposition Yposition Zposition Zrotation Xrotation Yrotation
        JOINT Foot_R
        {
          OFFSET -40.9854 0 0
          CHANNELS 6 Xposition Yposition Zposition Zrotation Xrotation Yrotation
          JOINT Toes_R
          {
            OFFSET -11.7543 0 0
            CHANNELS 6 Xposition Yposition Zposition Zrotation Xrotation Yrotation
            End Site
            {
              OFFSET 0 0 0
            }
          }
        }
      }
    }
  }
}
MOTION
Frames:	7
Frame Time:	0.0333333
0 0 0 0 0 -0 243.127 88.8765 -56.3777 93.9268 -60.6757 2.83905 15.7357 5.1072e-06 -5.51765e-07 95.3422 77.8512 -97.8499 8.98455 -0.406207 -4.3199e-07 16.4839 2.03687 -5.31759 16.3773 -1.3905e-06 -6.99897e-07 -1.00886 11.591 -3.15513 6.45672 -1.25837e-06 -1.02172e-07 -10.6007 16.7378 -10.1998 12.9942 -0.242716 4.98039 -91.0501 7.57048 -97.0794 5.34809 -7.22636e-06 -6.2814e-07 -56.3896 8.67808 -25.7427 24.3286 1.87007e-05 4.90208e-06 -1.59458 -6.81426 -13.2064 22.2916 -9.88446e-07 4.63217e-06 19.161 5.53856 -8.17823 12.9945 -0.242716 -4.98039 89.8559 6.42809 -103.713 -5.34813 -1.25947e-06 -3.79883e-06 -61.0071 14.9569 -11.6253 -24.3289 0.000322201 -8.65921e-06 6.27091 7.2999 -40.8594 -22.2915 -0.000108084 -4.47941e-06 15.1411 5.38529 -2.46391 -2.19248 -6.46944 -1.22533e-07 -178.02 -3.73605 -22.9174 39.0811 -6.73843e-06 -1.23785e-05 -0.00596595 0.0169842 42.2206 40.9854 -6.48686e-06 -1.26872e-05 -4.2264 -5.66207 -69.2082 11.7543 -2.30144e-07 3.05095e-06 -0.0307279 0.046604 -15.7383 -2.19251 6.46944 -1.45247e-06 175.335 21.2288 161.959 -39.0811 -0.00228153 -0.0401928 0.774253 -0.326384 67.1384 -40.9854 7.72618e-06 5.99936e-06 -24.3892 18.8786 -45.3695 -11.7543 -5.6619e-06 -5.58687e-06 0.392652 -0.472727 -21.0934 
0 0 0 0 0 -0 240.799 89.774 -56.3583 93.0332 -59.845 2.3252 15.7357 5.1072e-06 -5.51764e-07 94.9612 77.7857 -96.8273 8.98455 -0.406207 -4.3199e-07 16.6127 1.9357 -4.02016 16.3773 -1.3905e-06 -6.99897e-07 -0.707942 11.3107 -2.90483 6.45672 -1.25837e-06 -1.02172e-07 -10.7723 16.7433 -9.75002 12.9942 -0.242716 4.98039 -90.97 7.09691 -97.1966 5.34809 -7.22636e-06 -6.2814e-07 -54.7702 10.405 -27.9052 24.3286 1.87007e-05 4.90208e-06 -2.15172 -7.06245 -16.9866 22.2916 -9.88446e-07 4.63217e-06 18.7554 5.54217 -8.3421 12.9945 -0.242716 -4.98039 89.8303 6.09101 -103.401 -5.34813 -1.25947e-06 -3.79883e-06 -60.7569 13.9986 -10.3729 -24.3289 0.000322201 -8.65921e-06 6.03358 7.09578 -40.5571 -22.2915 -0.000108084 -4.47941e-06 15.4527 5.39384 -2.73874 -2.19248 -6.46944 -1.22533e-07 -176.694 -3.16747 -19.1868 39.0811 -6.73843e-06 -1.23785e-05 0.00753419 0.00255164 38.2671 40.9854 -6.48686e-06 -1.26872e-05 -5.01512 -5.22332 -68.6705 11.7543 -2.30145e-07 3.05095e-06 -0.0307396 0.0466242 -15.7381 -2.19251 6.46944 -1.45247e-06 174.501 21.073 159.532 -39.0811 -0.00228153 -0.0401928 0.741072 -0.330492 66.0645 -40.9854 7.72618e-06 5.99936e-06 -22.2448 18.0943 -47.612 -11.7543 -5.6619e-06 -5.58687e-06 0.389981 -0.469285 -21.0612 
0 0 0 0 0 -0 238.415 90.5385 -56.3272 92.6206 -59.021 2.31036 15.7357 5.1072e-06 -5.51765e-07 94.6977 77.785 -95.9392 8.98455 -0.406207 -4.3199e-07 16.6101 1.87368 -2.75996 16.3773 -1.3905e-06 -6.99897e-07 -0.276587 11.0526 -2.74521 6.45672 -1.25837e-06 -1.02172e-07 -10.7885 16.7786 -9.07244 12.9942 -0.242716 4.98039 -90.8928 6.58747 -97.2644 5.34809 -7.22636e-06 -6.2814e-07 -52.7249 12.5174 -29.83 24.3286 1.87007e-05 4.90208e-06 -2.76588 -7.24399 -20.9703 22.2916 -9.88446e-07 4.63217e-06 19.1521 5.5563 -9.00631 12.9945 -0.242716 -4.98039 89.7976 5.74363 -102.979 -5.34813 -1.25947e-06 -3.79883e-06 -60.6539 12.8374 -9.62102 -24.3289 0.000322201 -8.65921e-06 5.40354 6.77051 -38.7465 -22.2915 -0.000108084 -4.47941e-06 14.9957 5.3845 -2.43962 -2.19248 -6.46944 -1.22533e-07 -175.543 -3.38423 -15.2693 39.0811 -6.73843e-06 -1.23785e-05 0.0195983 -0.0164264 34.0645 40.9854 -6.48686e-06 -1.26872e-05 -5.56302 -4.01522 -67.882 11.7543 -2.30145e-07 3.05095e-06 -0.0270296 0.0410727 -15.8387 -2.19251 6.46944 -1.45247e-06 173.226 20.9827 158.039 -39.0811 -0.00228153 -0.0401928 0.63508 -0.331168 62.5866 -40.9854 7.72618e-06 5.99936e-06 -17.9542 16.5049 -51.4319 -11.7543 -5.6619e-06 -5.58687e-06 0.345731 -0.412131 -20.5298 
0 0 0 0 0 -0 236.07 91.0543 -56.3016 92.8607 -58.0806 2.74755 15.7357 5.1072e-06 -5.51764e-07 94.3158 77.8453 -95.008 8.98455 -0.406207 -4.3199e-07 16.4911 1.74847 -1.63977 16.3773 -1.3905e-06 -6.99897e-07 0.00717195 10.8711 -2.47332 6.45672 -1.25837e-06 -1.02172e-07 -10.8426 16.958 -8.48897 12.9942 -0.242716 4.98039 -90.843 6.18933 -97.229 5.34809 -7.22636e-06 -6.2814e-07 -50.4607 14.3085 -31.6869 24.3286 1.87007e-05 4.90208e-06 -3.52618 -7.64883 -24.83 22.2916 -9.88446e-07 4.63217e-06 19.8032 5.57411 -9.89981 12.9945 -0.242716 -4.98039 89.7601 5.67176 -102.575 -5.34813 -1.25947e-06 -3.79883e-06 -60.4357 11.3445 -9.21322 -24.3289 0.000322201 -8.65921e-06 4.9788 6.87068 -36.0676 -22.2915 -0.000108084 -4.47941e-06 14.4692 5.37241 -2.06116 -2.19248 -6.46944 -1.22533e-07 -174.718 -3.54413 -11.7314 39.0811 -6.73843e-06 -1.23785e-05 0.0281115 -0.0363833 30.1887 40.9854 -6.48686e-06 -1.26872e-05 -6.01811 -2.79903 -67.0754 11.7543 -2.30145e-07 3.05095e-06 -0.0215919 0.0328969 -15.986 -2.19251 6.46944 -1.45247e-06 171.543 21.1574 157.169 -39.0811 -0.00228153 -0.0401928 0.514864 -0.338469 56.8422 -40.9854 7.72618e-06 5.99936e-06 -13.8349 13.0928 -54.2155 -11.7543 -5.6619e-06 -5.58687e-06 0.351692 -0.419768 -20.6009 
0 0 0 0 0 -0 233.672 91.3295 -56.4178 93.1367 -56.8521 3.1146 15.7357 5.1072e-06 -5.51764e-07 93.8801 77.9102 -93.9926 8.98455 -0.406207 -4.3199e-07 16.3643 1.60254 -0.455636 16.3773 -1.3905e-06 -6.99897e-07 0.159685 10.7477 -2.08433 6.45672 -1.25837e-06 -1.02172e-07 -11.1735 17.1618 -8.17036 12.9942 -0.242716 4.98039 -90.8355 6.13543 -97.2306 5.34809 -7.22636e-06 -6.2814e-07 -48.0288 15.4702 -33.4883 24.3286 1.87007e-05 4.90208e-06 -4.27222 -7.98265 -28.3148 22.2916 -9.88446e-07 4.63217e-06 20.324 5.58785 -10.6425 12.9945 -0.242716 -4.98039 89.7069 6.06258 -102.227 -5.34813 -1.25947e-06 -3.79883e-06 -59.8915 9.61065 -8.97786 -24.3289 0.000322201 -8.65921e-06 4.59454 7.11263 -32.9906 -22.2915 -0.000108084 -4.47941e-06 14.6888 5.36449 -1.81721 -2.19248 -6.46944 -1.22534e-07 -173.77 -3.46692 -8.69723 39.0811 -6.73843e-06 -1.23785e-05 0.0349426 -0.0578888 26.8548 40.9854 -6.48686e-06 -1.26872e-05 -6.75641 -1.46349 -66.4173 11.7543 -2.30145e-07 3.05095e-06 -0.0198772 0.0303216 -16.0323 -2.19251 6.46944 -1.45247e-06 169.971 21.2133 157.205 -39.0811 -0.00228153 -0.0401928 0.373093 -0.32965 48.7476 -40.9854 7.72618e-06 5.99936e-06 -9.47017 8.84302 -55.9017 -11.7543 -5.6619e-06 -5.58687e-06 0.351136 -0.419055 -20.5944 
0 0 0 0 0 -0 231.245 91.2991 -56.7288 93.6121 -55.424 3.33234 15.7357 5.1072e-06 -5.51765e-07 93.5933 78.0387 -93.1446 8.98455 -0.406207 -4.3199e-07 16.1076 1.50946 0.684856 16.3773 -1.3905e-06 -6.99897e-07 0.123775 10.5996 -1.51625 6.45672 -1.25837e-06 -1.02172e-07 -11.5968 17.4476 -8.13713 12.9942 -0.242716 4.98039 -90.8661 6.37989 -97.2524 5.34809 -7.22636e-06 -6.2814e-07 -45.4368 16.2344 -35.305 24.3286 1.87007e-05 4.90208e-06 -5.04177 -8.3646 -31.2789 22.2916 -9.88446e-07 4.63217e-06 20.6479 5.59207 -10.8793 12.9945 -0.242716 -4.98039 89.6397 6.79006 -101.955 -5.34813 -1.25947e-06 -3.79883e-06 -59.339 7.21903 -8.86496 -24.3289 0.000322201 -8.65921e-06 4.23363 7.5435 -29.4246 -22.2915 -0.000108084 -4.47941e-06 15.0669 5.36609 -1.86761 -2.19248 -6.46944 -1.22533e-07 -172.822 -2.98814 -6.73332 39.0811 -6.73843e-06 -1.23785e-05 0.0398505 -0.0750223 24.6792 40.9854 -6.48686e-06 -1.26872e-05 -7.6921 -0.338343 -66.1149 11.7543 -2.30145e-07 3.05095e-06 -0.0157446 0.0240595 -16.1454 -2.19251 6.46944 -1.45247e-06 168.519 20.923 157.994 -39.0811 -0.00228153 -0.0401928 0.226439 -0.289044 38.3425 -40.9854 7.72618e-06 5.99936e-06 -4.42684 4.53152 -55.78 -11.7543 -5.6619e-06 -5.58687e-06 0.366777 -0.439169 -20.7816 
0 0 0 0 0 -0 228.678 90.8565 -57.2647 94.3673 -53.9404 3.54563 15.7357 5.1072e-06 -5.51765e-07 93.7877 78.219 -92.8457 8.98455 -0.406207 -4.3199e-07 15.7362 1.59952 1.66485 16.3773 -1.3905e-06 -6.99897e-07 0.0509994 10.3969 -1.01671 6.45672 -1.25837e-06 -1.02172e-07 -12.0841 17.4793 -7.88044 12.9942 -0.242716 4.98039 -90.8838 6.58764 -97.3412 5.34809 -7.22636e-06 -6.2814e-07 -43.2766 16.5794 -37.2407 24.3286 1.87007e-05 4.90208e-06 -5.5281 -8.55897 -33.0362 22.2916 -9.88446e-07 4.63217e-06 20.8228 5.59613 -11.1143 12.9945 -0.242716 -4.98039 89.5766 7.59469 -101.8 -5.34813 -1.25947e-06 -3.79883e-06 -58.986 4.68768 -8.74695 -24.3289 0.000322201 -8.65921e-06 3.83808 7.98044 -25.7972 -22.2915 -0.000108084 -4.47941e-06 15.7583 5.34331 -1.17949 -2.19248 -6.46944 -1.22534e-07 -171.794 -2.54257 -5.90668 39.0811 -6.73843e-06 -1.23785e-05 0.0394324 -0.0725666 24.1449 40.9854 -6.48686e-06 -1.26872e-05 -8.87474 0.932273 -66.4887 11.7543 -2.30145e-07 3.05095e-06 -0.00966792 0.0148209 -16.3118 -2.19251 6.46944 -1.45247e-06 166.829 19.3624 159.592 -39.0811 -0.00228153 -0.0401928 0.105265 -0.215367 26.287 -40.9854 7.72618e-06 5.99936e-06 -0.865417 -0.778824 -54.5132 -11.7543 -5.6619e-06 -5.58687e-06 0.325187 -0.385949 -20.285 
